{"title":"Stolichani v poveche - Season 4 - Episode 13","uid":7915130,"size":482150140,"categoryP":"video","categoryS":"tv_shows","magnet":"?xt=urn:btih:b4d5170eba4b6cbc52abc6fefd9c86c16b77dcc3&amp;dn=Stolichani+v+poveche+-+Season+4+-+Episode+13&amp;tr=udp%3A%2F%2Ftracker.openbittorrent.com%3A80&amp;tr=udp%3A%2F%2Fopen.demonii.com%3A1337&amp;tr=udp%3A%2F%2Ftracker.coppersurfer.tk%3A6969&amp;tr=udp%3A%2F%2Fexodus.desync.com%3A6969","seeders":1,"leechers":0,"uploader":"skypirat","files":1,"time":1355355158,"description":"HQ WebRip\n\nFormat                                   : AVI\nFormat/Info                              : Audio Video Interleave\nFile size                                : 460 MiB\nDuration                                 : 44mn 22s\nOverall bit rate                         : 1 449 Kbps\nWriting application                      : Lavf52.84.0\nWriting library                          : VirtualDub build 32842/release\n\nVideo\nID                                       : 0\nFormat                                   : xvid\nCodec ID                                 : xvid\nDuration                                 : 44mn 22s\nBit rate                                 : 1 310 Kbps\nWidth                                    : 720 pixels\nHeight                                   : 400 pixels\nDisplay aspect ratio                     : 16:9\nFrame rate                               : 25.000 fps\nBits/(Pixel*Frame)                       : 0.182\nStream size                              : 416 MiB (90%)\n\nAudio\nID                                       : 1\nFormat                                   : AC-3\nFormat/Info                              : Audio Coding 3\nMode extension                           : CM (complete main)\nFormat settings, Endianness              : Big\nCodec ID                                 : 2000\nDuration                                 : 44mn 22s\nBit rate mode                            : Constant\nBit rate                                 : 128 Kbps\nChannel(s)                               : 2 channels\nChannel positions                        : Front: L R\nSampling rate                            : 48.0 KHz\nBit depth                                : 16 bits\nCompression mode                         : Lossy\nStream size                              : 40.6 MiB (9%)\nAlignment                                : Aligned on interleaves\nInterleave, duration                     : 32 ms (0.80 video frame)\nInterleave, preload duration             : 512 ms\n\n","torrent":{"xt":"urn:btih:b4d5170eba4b6cbc52abc6fefd9c86c16b77dcc3","amp;dn":"Stolichani+v+poveche+-+Season+4+-+Episode+13","amp;tr":["udp%3A%2F%2Ftracker.openbittorrent.com%3A80","udp%3A%2F%2Fopen.demonii.com%3A1337","udp%3A%2F%2Ftracker.coppersurfer.tk%3A6969","udp%3A%2F%2Fexodus.desync.com%3A6969"],"infoHash":"b4d5170eba4b6cbc52abc6fefd9c86c16b77dcc3","infoHashBuffer":{"type":"Buffer","data":[180,213,23,14,186,75,108,188,82,171,198,254,253,156,134,193,107,119,220,195]},"announce":[],"urlList":[]}}